# Blender v2.77 (sub 0) OBJ File: 'xyz_widget_rotated.blend'
# www.blender.org
mtllib xyz_widget_rotated.mtl
o Textf.003_Mesh.003
v -0.033771 1.895481 0.033283
v 0.149229 1.895481 0.268283
v 0.267229 1.895481 0.268283
v 0.014229 1.895481 -0.052717
v 0.014229 1.895481 -0.413717
v -0.083771 1.895481 -0.413717
v -0.083771 1.895481 -0.053717
v -0.336771 1.895481 0.268283
v -0.218771 1.895481 0.268283
v -0.033771 2.036187 0.033283
v 0.149229 2.036187 0.268283
v 0.267229 2.036187 0.268283
v 0.014229 2.036187 -0.052717
v 0.014229 2.036187 -0.413717
v -0.083771 2.036187 -0.413717
v -0.083771 2.036187 -0.053717
v -0.336771 2.036187 0.268283
v -0.218771 2.036187 0.268283
v -0.081394 -0.267437 2.047979
v 0.352606 0.326563 2.047979
v -0.262394 0.326563 2.047979
v -0.262394 0.238563 2.047979
v 0.171606 0.238563 2.047979
v -0.262394 -0.355437 2.047979
v 0.325606 -0.355436 2.047979
v 0.325606 -0.267437 2.047979
v -0.081394 -0.267437 2.186412
v 0.352606 0.326563 2.186412
v -0.262394 0.326563 2.186412
v -0.262394 0.238563 2.186412
v 0.171606 0.238563 2.186412
v -0.262394 -0.355437 2.186412
v 0.325606 -0.355436 2.186412
v 0.325606 -0.267437 2.186412
v 2.085018 -0.381383 -0.384903
v 2.084844 -0.263181 -0.384968
v 2.084344 -0.049675 -0.124640
v 2.084213 0.164548 -0.385201
v 2.084037 0.283751 -0.385267
v 2.084206 0.010464 -0.055555
v 2.083521 0.305159 0.297887
v 2.083696 0.185956 0.297952
v 2.084244 -0.049599 0.015599
v 2.084387 -0.281841 0.298208
v 2.084561 -0.400043 0.298273
v 2.084382 -0.108739 -0.055490
v 2.305351 -0.381057 -0.384747
v 2.305177 -0.262856 -0.384811
v 2.304677 -0.049351 -0.124484
v 2.304546 0.164873 -0.385045
v 2.304370 0.284076 -0.385110
v 2.304539 0.010790 -0.055399
v 2.303854 0.305485 0.298043
v 2.304030 0.186281 0.298109
v 2.304578 -0.049274 0.015755
v 2.304720 -0.281516 0.298364
v 2.304894 -0.399717 0.298429
v 2.304715 -0.108413 -0.055334
v 0.384650 0.342014 -0.487068
v 0.384651 -0.451594 -0.487068
v -0.408958 -0.451594 -0.487069
v -0.408958 0.342015 -0.487068
v 0.384651 0.342014 0.306541
v 0.384650 -0.451595 0.306541
v -0.408959 -0.451595 0.306541
v -0.408959 0.342014 0.306541
v 0.377581 1.420223 -0.491972
v -0.416028 1.420223 -0.491973
v 0.377581 1.420223 0.301637
v -0.416029 1.420223 0.301637
v 1.404426 0.348092 -0.475972
v 1.404426 -0.445517 -0.475972
v 1.404426 0.348092 0.317637
v 1.404425 -0.445517 0.317637
v 0.384650 0.342014 1.432796
v 0.384650 -0.451595 1.432796
v -0.408959 0.342014 1.432796
v -0.408959 -0.451595 1.432796
vn 0.0000 -1.0000 -0.0000
vn 0.0000 1.0000 0.0000
vn 0.7857 0.0000 0.6186
vn 0.7854 0.0000 -0.6190
vn 0.0000 0.0000 1.0000
vn -0.7890 -0.0000 0.6144
vn 1.0000 0.0000 0.0000
vn -1.0000 -0.0000 0.0000
vn -0.7863 0.0000 -0.6178
vn 0.0000 0.0000 -1.0000
vn 0.8074 -0.5899 -0.0000
vn -0.8074 0.5899 0.0000
vn -1.0000 -0.0015 -0.0007
vn 1.0000 0.0015 0.0007
vn 0.0007 -0.0005 -1.0000
vn 0.0016 -0.7720 -0.6357
vn 0.0007 -0.7704 0.6376
vn -0.0007 0.7680 -0.6404
vn 0.0016 -0.7724 -0.6351
vn -0.0007 0.0005 1.0000
vn 0.0007 -0.7679 0.6406
vn -0.0016 0.7699 0.6382
vn -0.0007 0.7732 -0.6341
vn -0.0016 0.7726 0.6349
vn -0.0109 -0.0000 0.9999
vn 0.0000 -0.0045 -1.0000
vn 1.0000 0.0066 -0.0000
vn -0.0000 0.0045 1.0000
vn -1.0000 -0.0066 -0.0000
vn 0.0060 -1.0000 -0.0000
vn -0.0060 1.0000 0.0000
vn 0.0109 0.0000 -0.9999
usemtl Material
s off
f 4//1 3//1 2//1
f 4//1 2//1 1//1
f 1//1 9//1 8//1
f 1//1 8//1 7//1
f 4//1 1//1 7//1
f 5//1 4//1 7//1
f 5//1 7//1 6//1
f 13//2 16//2 10//2
f 1//3 18//3 9//3
f 4//4 12//4 3//4
f 9//5 17//5 8//5
f 2//6 10//6 1//6
f 5//7 13//7 4//7
f 7//8 15//8 6//8
f 3//5 11//5 2//5
f 8//9 16//9 7//9
f 6//10 14//10 5//10
f 26//10 25//10 24//10
f 26//10 24//10 19//10
f 19//10 24//10 23//10
f 20//10 19//10 23//10
f 20//10 23//10 22//10
f 20//10 22//10 21//10
f 23//1 30//1 22//1
f 19//2 34//2 26//2
f 25//1 32//1 24//1
f 20//11 27//11 19//11
f 24//12 31//12 23//12
f 22//8 29//8 21//8
f 26//7 33//7 25//7
f 21//2 28//2 20//2
f 27//5 28//5 31//5
f 40//13 39//13 38//13
f 40//13 38//13 37//13
f 37//13 36//13 35//13
f 37//13 35//13 46//13
f 40//13 37//13 46//13
f 41//13 40//13 46//13
f 41//13 46//13 43//13
f 43//13 46//13 45//13
f 41//13 43//13 42//13
f 44//13 43//13 45//13
f 55//14 58//14 49//14
f 39//15 50//15 38//15
f 46//16 57//16 45//16
f 46//17 47//17 58//17
f 41//18 52//18 40//18
f 36//15 47//15 35//15
f 38//19 49//19 37//19
f 44//20 57//20 56//20
f 42//21 55//21 54//21
f 39//22 52//22 51//22
f 41//20 54//20 53//20
f 37//23 48//23 36//23
f 43//24 56//24 55//24
f 59//10 61//10 62//10
f 65//1 76//1 78//1
f 64//25 73//25 63//25
f 64//1 61//1 60//1
f 61//8 66//8 62//8
f 62//26 67//26 59//26
f 67//2 70//2 69//2
f 59//27 69//27 63//27
f 66//28 69//28 70//28
f 62//29 70//29 68//29
f 73//7 72//7 71//7
f 60//30 74//30 64//30
f 63//31 71//31 59//31
f 60//32 71//32 72//32
f 75//5 78//5 76//5
f 63//7 76//7 64//7
f 65//8 77//8 66//8
f 63//2 77//2 75//2
f 10//2 11//2 13//2
f 13//2 14//2 16//2
f 11//2 12//2 13//2
f 17//2 18//2 16//2
f 14//2 15//2 16//2
f 16//2 18//2 10//2
f 1//3 10//3 18//3
f 4//4 13//4 12//4
f 9//5 18//5 17//5
f 2//6 11//6 10//6
f 5//7 14//7 13//7
f 7//8 16//8 15//8
f 3//5 12//5 11//5
f 8//9 17//9 16//9
f 6//10 15//10 14//10
f 23//1 31//1 30//1
f 19//2 27//2 34//2
f 25//1 33//1 32//1
f 20//11 28//11 27//11
f 24//12 32//12 31//12
f 22//8 30//8 29//8
f 26//7 34//7 33//7
f 21//2 29//2 28//2
f 32//5 33//5 27//5
f 33//5 34//5 27//5
f 29//5 30//5 31//5
f 31//5 32//5 27//5
f 28//5 29//5 31//5
f 49//14 50//14 52//14
f 52//14 53//14 54//14
f 50//14 51//14 52//14
f 47//14 48//14 58//14
f 56//14 57//14 58//14
f 58//14 48//14 49//14
f 49//14 52//14 55//14
f 55//14 56//14 58//14
f 52//14 54//14 55//14
f 39//15 51//15 50//15
f 46//16 58//16 57//16
f 46//17 35//17 47//17
f 41//18 53//18 52//18
f 36//15 48//15 47//15
f 38//19 50//19 49//19
f 44//20 45//20 57//20
f 42//21 43//21 55//21
f 39//22 40//22 52//22
f 41//20 42//20 54//20
f 37//23 49//23 48//23
f 43//24 44//24 56//24
f 59//10 60//10 61//10
f 65//1 64//1 76//1
f 64//25 74//25 73//25
f 64//1 65//1 61//1
f 61//8 65//8 66//8
f 62//26 68//26 67//26
f 67//2 68//2 70//2
f 59//27 67//27 69//27
f 66//28 63//28 69//28
f 62//29 66//29 70//29
f 73//7 74//7 72//7
f 60//30 72//30 74//30
f 63//31 73//31 71//31
f 60//32 59//32 71//32
f 75//5 77//5 78//5
f 63//7 75//7 76//7
f 65//8 78//8 77//8
f 63//2 66//2 77//2
