# Blender v2.77 (sub 0) OBJ File: 'xyz_widget_rotated_small.blend'
# www.blender.org
mtllib xyz_widget_rotated_small.mtl
o Textf.003_Mesh.003
v -0.023482 1.318021 0.023143
v 0.103767 1.318021 0.186550
v 0.185818 1.318021 0.186550
v 0.009894 1.318021 -0.036657
v 0.009894 1.318021 -0.287678
v -0.058250 1.318021 -0.287678
v -0.058250 1.318021 -0.037352
v -0.234173 1.318021 0.186550
v -0.152122 1.318021 0.186550
v -0.023482 1.415861 0.023143
v 0.103767 1.415861 0.186550
v 0.185818 1.415861 0.186550
v 0.009894 1.415861 -0.036657
v 0.009894 1.415861 -0.287678
v -0.058250 1.415861 -0.287678
v -0.058250 1.415861 -0.037352
v -0.234173 1.415861 0.186550
v -0.152122 1.415861 0.186550
v -0.056597 -0.185962 1.424061
v 0.245185 0.227076 1.424061
v -0.182455 0.227076 1.424061
v -0.182455 0.165885 1.424061
v 0.119326 0.165885 1.424061
v -0.182455 -0.247153 1.424061
v 0.226410 -0.247152 1.424061
v 0.226410 -0.185962 1.424061
v -0.056597 -0.185962 1.520320
v 0.245185 0.227076 1.520320
v -0.182455 0.227076 1.520320
v -0.182455 0.165885 1.520320
v 0.119326 0.165885 1.520320
v -0.182455 -0.247153 1.520320
v 0.226410 -0.247153 1.520320
v 0.226410 -0.185962 1.520320
v 1.449816 -0.265194 -0.267642
v 1.449695 -0.183003 -0.267687
v 1.449347 -0.034542 -0.086668
v 1.449256 0.114418 -0.267850
v 1.449134 0.197306 -0.267895
v 1.449252 0.007276 -0.038630
v 1.448775 0.212192 0.207136
v 1.448897 0.129305 0.207181
v 1.449278 -0.034489 0.010847
v 1.449377 -0.195978 0.207359
v 1.449498 -0.278169 0.207404
v 1.449374 -0.075611 -0.038585
v 1.603025 -0.264968 -0.267533
v 1.602903 -0.182777 -0.267578
v 1.602556 -0.034316 -0.086560
v 1.602465 0.114644 -0.267741
v 1.602342 0.197532 -0.267786
v 1.602460 0.007503 -0.038521
v 1.601983 0.212419 0.207244
v 1.602106 0.129531 0.207290
v 1.602487 -0.034262 0.010956
v 1.602586 -0.195752 0.207467
v 1.602707 -0.277943 0.207512
v 1.602582 -0.075385 -0.038476
v 0.267467 0.237819 -0.338683
v 0.267467 -0.314016 -0.338683
v -0.284369 -0.314016 -0.338683
v -0.284369 0.237820 -0.338683
v 0.267467 0.237819 0.213153
v 0.267466 -0.314016 0.213153
v -0.284369 -0.314016 0.213153
v -0.284369 0.237819 0.213153
v 0.262550 0.987551 -0.342093
v -0.289285 0.987551 -0.342093
v 0.262550 0.987551 0.209743
v -0.289285 0.987551 0.209743
v 0.976567 0.242046 -0.330967
v 0.976567 -0.309790 -0.330967
v 0.976567 0.242046 0.220869
v 0.976566 -0.309790 0.220869
v 0.267467 0.237819 0.996294
v 0.267466 -0.314016 0.996294
v -0.284369 0.237819 0.996294
v -0.284369 -0.314016 0.996294
vn 0.0000 -1.0000 0.0000
vn 0.0000 1.0000 0.0000
vn 0.7857 0.0000 0.6186
vn 0.7854 0.0000 -0.6190
vn 0.0000 0.0000 1.0000
vn -0.7890 -0.0000 0.6144
vn 1.0000 0.0000 0.0000
vn -1.0000 -0.0000 0.0000
vn -0.7863 -0.0000 -0.6178
vn 0.0000 0.0000 -1.0000
vn 0.8074 -0.5899 0.0000
vn -0.8074 0.5899 0.0000
vn -1.0000 -0.0015 -0.0007
vn 1.0000 0.0015 0.0007
vn 0.0007 -0.0005 -1.0000
vn 0.0016 -0.7720 -0.6357
vn 0.0007 -0.7704 0.6376
vn -0.0007 0.7680 -0.6404
vn 0.0016 -0.7724 -0.6351
vn -0.0007 0.0005 1.0000
vn 0.0007 -0.7679 0.6406
vn -0.0016 0.7699 0.6382
vn -0.0007 0.7732 -0.6341
vn -0.0016 0.7726 0.6349
vn -0.0109 -0.0000 0.9999
vn 0.0000 -0.0045 -1.0000
vn 1.0000 0.0066 -0.0000
vn -0.0000 0.0045 1.0000
vn -1.0000 -0.0066 -0.0000
vn 0.0060 -1.0000 -0.0000
vn -0.0060 1.0000 0.0000
vn 0.0109 0.0000 -0.9999
usemtl Material
s off
f 4//1 3//1 2//1
f 4//1 2//1 1//1
f 1//1 9//1 8//1
f 1//1 8//1 7//1
f 4//1 1//1 7//1
f 5//1 4//1 7//1
f 5//1 7//1 6//1
f 13//2 16//2 10//2
f 1//3 18//3 9//3
f 4//4 12//4 3//4
f 9//5 17//5 8//5
f 2//6 10//6 1//6
f 5//7 13//7 4//7
f 7//8 15//8 6//8
f 3//5 11//5 2//5
f 8//9 16//9 7//9
f 6//10 14//10 5//10
f 26//10 25//10 24//10
f 26//10 24//10 19//10
f 19//10 24//10 23//10
f 20//10 19//10 23//10
f 20//10 23//10 22//10
f 20//10 22//10 21//10
f 23//1 30//1 22//1
f 19//2 34//2 26//2
f 25//1 32//1 24//1
f 20//11 27//11 19//11
f 24//12 31//12 23//12
f 22//8 29//8 21//8
f 26//7 33//7 25//7
f 21//2 28//2 20//2
f 27//5 28//5 31//5
f 40//13 39//13 38//13
f 40//13 38//13 37//13
f 37//13 36//13 35//13
f 37//13 35//13 46//13
f 40//13 37//13 46//13
f 41//13 40//13 46//13
f 41//13 46//13 43//13
f 43//13 46//13 45//13
f 41//13 43//13 42//13
f 44//13 43//13 45//13
f 55//14 58//14 49//14
f 39//15 50//15 38//15
f 46//16 57//16 45//16
f 46//17 47//17 58//17
f 41//18 52//18 40//18
f 36//15 47//15 35//15
f 38//19 49//19 37//19
f 44//20 57//20 56//20
f 42//21 55//21 54//21
f 39//22 52//22 51//22
f 41//20 54//20 53//20
f 37//23 48//23 36//23
f 43//24 56//24 55//24
f 59//10 61//10 62//10
f 65//1 76//1 78//1
f 64//25 73//25 63//25
f 64//1 61//1 60//1
f 61//8 66//8 62//8
f 62//26 67//26 59//26
f 67//2 70//2 69//2
f 59//27 69//27 63//27
f 66//28 69//28 70//28
f 62//29 70//29 68//29
f 73//7 72//7 71//7
f 60//30 74//30 64//30
f 63//31 71//31 59//31
f 60//32 71//32 72//32
f 75//5 78//5 76//5
f 63//7 76//7 64//7
f 65//8 77//8 66//8
f 63//2 77//2 75//2
f 10//2 11//2 13//2
f 13//2 14//2 16//2
f 11//2 12//2 13//2
f 17//2 18//2 16//2
f 14//2 15//2 16//2
f 16//2 18//2 10//2
f 1//3 10//3 18//3
f 4//4 13//4 12//4
f 9//5 18//5 17//5
f 2//6 11//6 10//6
f 5//7 14//7 13//7
f 7//8 16//8 15//8
f 3//5 12//5 11//5
f 8//9 17//9 16//9
f 6//10 15//10 14//10
f 23//1 31//1 30//1
f 19//2 27//2 34//2
f 25//1 33//1 32//1
f 20//11 28//11 27//11
f 24//12 32//12 31//12
f 22//8 30//8 29//8
f 26//7 34//7 33//7
f 21//2 29//2 28//2
f 32//5 33//5 27//5
f 33//5 34//5 27//5
f 29//5 30//5 31//5
f 31//5 32//5 27//5
f 28//5 29//5 31//5
f 49//14 50//14 52//14
f 52//14 53//14 54//14
f 50//14 51//14 52//14
f 47//14 48//14 58//14
f 56//14 57//14 58//14
f 58//14 48//14 49//14
f 49//14 52//14 55//14
f 55//14 56//14 58//14
f 52//14 54//14 55//14
f 39//15 51//15 50//15
f 46//16 58//16 57//16
f 46//17 35//17 47//17
f 41//18 53//18 52//18
f 36//15 48//15 47//15
f 38//19 50//19 49//19
f 44//20 45//20 57//20
f 42//21 43//21 55//21
f 39//22 40//22 52//22
f 41//20 42//20 54//20
f 37//23 49//23 48//23
f 43//24 44//24 56//24
f 59//10 60//10 61//10
f 65//1 64//1 76//1
f 64//25 74//25 73//25
f 64//1 65//1 61//1
f 61//8 65//8 66//8
f 62//26 68//26 67//26
f 67//2 68//2 70//2
f 59//27 67//27 69//27
f 66//28 63//28 69//28
f 62//29 66//29 70//29
f 73//7 74//7 72//7
f 60//30 72//30 74//30
f 63//31 73//31 71//31
f 60//32 59//32 71//32
f 75//5 77//5 78//5
f 63//7 75//7 76//7
f 65//8 78//8 77//8
f 63//2 66//2 77//2
